<svg width="42" height="42" viewBox="0 0 42 42" fill="none" xmlns="http://www.w3.org/2000/svg">
<g clip-path="url(#clip0_526_7)">
<path d="M19.4414 0.574219V0.656251C28.2442 0.656251 36.4225 5.621 39.5347 14.1094C42.7494 22.8775 39.3298 32.8794 31.582 38.0352C29.6903 39.294 27.3029 40.5439 25.0195 40.8516C25.4447 41.0175 26.064 40.7823 26.4961 40.6768C27.8179 40.3542 29.1211 39.8921 30.3516 39.3109C35.7696 36.7518 39.711 31.9166 41.309 26.168C43.907 16.8213 39.0886 6.4531 30.2695 2.40423C26.7049 0.767659 23.2763 0.573801 19.4414 0.574219Z" fill="#BF9101"/>
<path d="M37.7345 31.5819H37.6524C36.3251 33.9661 34.238 36.0951 31.9923 37.624C28.3737 40.0876 24.0126 41.5334 19.6056 41.3404C7.35794 40.8041 -1.88945 29.0507 0.508674 17.0624C1.01635 14.5245 2.03953 12.0795 3.47275 9.92565C5.23735 7.27388 7.56296 5.04822 10.336 3.46823C13.5539 1.63481 17.1417 0.732223 20.836 0.738152C23.9161 0.743093 27.1622 1.68343 29.8595 3.14238C31.0475 3.78499 32.0835 4.62241 33.2227 5.3319C32.805 4.50922 31.462 3.88197 30.6798 3.4329C28.0129 1.90193 25.0542 0.955887 21.9845 0.730871C10.6925 -0.0968608 0.503611 8.67238 0.00332101 20.0975C-0.516529 31.9693 9.87551 42.5214 21.9024 41.3576C26.7954 40.8841 31.3485 38.9566 34.8634 35.4374C35.8374 34.4621 37.4091 32.9663 37.7345 31.5819Z" fill="#D9A509"/>
<path d="M19.1953 0.773337C14.3961 1.40348 10.1018 2.86857 6.48045 6.24196C4.71113 7.89012 3.272 9.89871 2.19457 12.0588C-3.49905 23.474 3.14226 37.6486 15.5039 40.739C17.977 41.3573 20.5286 41.4885 23.0508 41.1568C32.6714 39.8918 40.2596 31.5988 40.6843 21.9026C41.1128 12.1163 34.0545 3.08728 24.4453 1.16507C22.7707 0.830096 20.9025 0.549175 19.1953 0.773337Z" fill="#E9C34F"/>
<path d="M19.1132 3.5622C15.3365 4.05807 11.8576 5.16735 8.89405 7.6875C7.30307 9.04054 6.0271 10.7369 5.01526 12.5508C1.07342 19.6175 2.69969 29.1269 8.89405 34.3946C12.6001 37.5462 17.6604 39.0271 22.4765 38.4493C25.1218 38.1319 27.6981 37.235 29.9413 35.7909C38.3922 30.3505 40.5631 18.0113 34.2029 10.106C31.966 7.3257 28.9114 5.30925 25.5116 4.26364C23.525 3.65265 21.1904 3.28947 19.1132 3.5622Z" fill="#D7A301"/>
<path d="M19.6876 4.21828C16.2843 4.66535 13.1548 5.61068 10.3844 7.7388C8.73468 9.00601 7.36531 10.6261 6.26932 12.3866C1.88938 19.422 3.64784 28.9182 10.0427 34.1478C13.7531 37.1822 18.6634 38.4615 23.379 37.7929C25.7175 37.4613 27.9347 36.5641 29.9415 35.3386C31.5433 34.3605 32.9501 33.0523 34.1078 31.5819C39.8705 24.2628 38.5342 13.0175 30.9259 7.4996C29.3163 6.33228 27.5074 5.41298 25.5938 4.86358C23.7466 4.33323 21.6109 3.96564 19.6876 4.21828Z" fill="#E9C34F"/>
<path d="M37.7344 10.5C38.4283 12.4062 39.5148 14.0752 40.0408 16.0781C41.0534 19.9342 40.8147 23.9713 39.5108 27.7266C39.0432 29.0734 38.2152 30.2612 37.7344 31.582C38.721 30.7368 39.2725 28.8498 39.6758 27.6445C41.0529 23.528 41.1625 18.9905 39.8122 14.8477C39.3809 13.5242 38.8196 11.4296 37.7344 10.5Z" fill="#D9A505"/>
<path d="M20.4258 12.5508C20.6967 13.7043 21.6965 14.9293 22.3035 15.9489C22.9821 17.0889 23.5106 18.4229 24.3633 19.4414C24.4779 18.8483 23.9345 18.2108 23.6415 17.7188C22.9158 16.5003 22.2479 15.2476 21.5248 14.0273C21.2481 13.5607 20.9711 12.7213 20.4258 12.5508Z" fill="#BF8F01"/>
<path d="M20.3438 12.6328L17.7302 17.3086L16.6523 19.3594L16.4883 19.1953C15.9865 19.4708 15.1108 19.0136 14.6016 18.8651C13.159 18.4442 11.3377 17.6801 9.84375 17.6367V17.8828C10.4801 18.2439 10.7751 19.4587 11.0945 20.0977L13.7195 25.3477C13.9917 25.8922 14.314 27.0443 14.8179 27.3961C15.1242 27.61 15.8018 27.4805 16.1602 27.4805C17.3133 27.4805 18.4542 27.398 19.6055 27.3984C21.1862 27.399 22.7764 27.4805 24.3633 27.4805C24.8739 27.4805 25.7519 27.6502 26.218 27.431C26.7982 27.158 27.2601 25.5839 27.5422 25.0195C28.36 23.3839 29.1239 21.7226 29.9626 20.0977C30.367 19.3141 31.0146 18.426 31.1719 17.5547C30.8814 17.5927 30.3954 17.6425 30.3516 17.9648C29.5696 17.8262 28.7177 18.2271 27.9727 18.455C26.7548 18.8275 25.5085 19.0979 24.2812 19.4414C24.0244 18.5683 23.3434 17.7563 22.8954 16.9677C22.116 15.5955 21.4343 13.7724 20.3438 12.6328Z" fill="#D7A301"/>
<path d="M9.59766 17.3086C9.9047 17.7959 10.9151 17.8986 11.4496 18.0534C13.0848 18.5269 14.802 19.1115 16.4883 19.3594C16.1709 18.9406 15.182 18.8335 14.6836 18.6916C13.0871 18.2372 11.2567 17.3844 9.59766 17.3086Z" fill="#BF8F01"/>
<path d="M31.2539 17.4727C30.1004 19.8957 28.8655 22.29 27.6648 24.6914C27.3215 25.378 26.8693 26.9807 26.218 27.3961C25.5703 27.8093 23.8165 27.4805 23.0508 27.4805H14.6836V27.5625C17.5587 27.5625 20.4255 27.6445 23.2969 27.6445H25.5117C25.7812 27.6445 26.2102 27.7233 26.4438 27.5602C27.1022 27.1006 27.5523 25.4906 27.9109 24.7734C29.1046 22.3861 30.4744 20.0182 31.5 17.5547L31.2539 17.4727Z" fill="#BF9101"/>
<path d="M9.84375 17.8828C11.1912 21.1192 12.9167 24.4533 14.6836 27.4805H14.7656C14.5119 26.5999 13.9648 25.7563 13.5554 24.9375L11.1765 20.1797C10.8801 19.5868 10.4953 18.1054 9.84375 17.8828Z" fill="#DFB123"/>
<path d="M18.1289 27.3984V27.4805H20.4258L18.1289 27.3984Z" fill="#E3B735"/>
<path d="M14.6836 27.5625V27.6445H20.5898L18.7031 27.5625H14.6836Z" fill="#D9AD25"/>
</g>
<defs>
<clipPath id="clip0_526_7">
<rect width="42" height="42" fill="white"/>
</clipPath>
</defs>
</svg>
