<svg width="157" height="103" viewBox="0 0 157 103" fill="none" xmlns="http://www.w3.org/2000/svg">
<path d="M109.269 75.0914C114.107 74.7914 124.789 71.9714 128.818 63.0914C133.853 51.9914 129.114 43.2914 122.894 37.8914C116.674 32.4914 99.1982 27.3914 89.7199 26.4914C80.2417 25.5914 73.133 25.8914 68.3938 27.6914C63.6547 29.4914 57.1384 35.4914 52.3993 37.8914C47.6601 40.2914 30.1846 49.2914 26.6302 54.9914C23.0759 60.6914 21.0025 62.7914 22.4835 66.9914C23.9645 71.1914 27.2226 72.3914 30.777 72.3914C34.3313 72.3914 40.5514 76.8914 42.921 76.8914C45.2906 76.8914 58.3232 74.1914 63.9509 72.3914C69.5786 70.5914 76.9835 69.9914 82.6112 71.1914C88.2389 72.3914 105.122 75.7494 109.269 75.0914Z" fill="#A17047"/>
<g filter="url(#filter0_f_521_13)">
<path d="M32.594 65.6231C37.5306 67.0231 48.4701 69.4031 52.7353 67.7231C58.0669 65.6231 60.4364 65.6231 65.4717 65.6231C70.5071 65.6231 82.0587 63.5231 91.537 65.6231C101.015 67.7231 105.162 71.9231 110.79 69.8231C116.417 67.7231 125.303 63.2231 124.415 54.2231C123.526 45.2231 114.64 36.8231 105.458 35.6231C96.2761 34.4231 81.4663 31.7231 75.2462 32.0231C69.0261 32.3231 62.5098 35.6231 58.9554 39.5231C55.4011 43.4231 48.5886 49.4231 45.0342 51.8231C41.4799 54.2231 33.7788 57.2231 32.594 60.5231C31.6462 63.1631 32.1991 65.0231 32.594 65.6231Z" fill="url(#paint0_linear_521_13)"/>
</g>
<g filter="url(#filter1_f_521_13)">
<path d="M91.5369 65.623C101.015 67.723 105.162 71.923 110.79 69.823C116.417 67.723 125.303 63.223 124.415 54.223C123.526 45.223 114.64 36.823 105.458 35.623C100.127 35.623 87.4592 42.4999 84.4973 48.7999C82.1277 53.8399 88.2031 62.1153 91.5369 65.623Z" fill="url(#paint1_linear_521_13)"/>
</g>
<path d="M55.1383 61.0128C58.1646 61.0128 60.6179 59.9947 60.6179 58.7388C60.6179 57.4829 58.1646 56.4648 55.1383 56.4648C52.112 56.4648 49.6587 57.4829 49.6587 58.7388C49.6587 59.9947 52.112 61.0128 55.1383 61.0128Z" fill="#CFA965"/>
<path d="M98.4432 55.8254C101.144 54.442 102.879 52.4119 102.32 51.2912C101.76 50.1705 99.117 50.3836 96.4165 51.767C93.7159 53.1505 91.9804 55.1805 92.5401 56.3012C93.0997 57.4219 95.7426 57.2089 98.4432 55.8254Z" fill="#CFA965"/>
<path d="M76.9976 64.715C80.0239 64.715 82.4772 63.6969 82.4772 62.441C82.4772 61.1851 80.0239 60.167 76.9976 60.167C73.9713 60.167 71.5179 61.1851 71.5179 62.441C71.5179 63.6969 73.9713 64.715 76.9976 64.715Z" fill="#CFA965"/>
<path d="M45.5298 53.987C48.5561 53.987 51.0094 52.9689 51.0094 51.713C51.0094 50.4571 48.5561 49.439 45.5298 49.439C42.5035 49.439 40.0502 50.4571 40.0502 51.713C40.0502 52.9689 42.5035 53.987 45.5298 53.987Z" fill="#CFA965"/>
<path d="M50.3163 68.6867C49.5995 69.7127 47.0167 69.1127 44.5464 67.3487C42.0762 65.5847 40.6485 63.3167 41.3594 62.2907C42.0762 61.2647 44.659 61.8647 47.1293 63.6287C49.6055 65.3927 51.0272 67.6607 50.3163 68.6867Z" fill="#CFA965"/>
<path d="M105.249 48.7009C103.94 47.9989 103.412 46.4149 104.07 45.1609C104.727 43.9069 106.315 43.4629 107.624 44.1649C108.933 44.8669 109.461 46.4509 108.803 47.7049C108.146 48.9589 106.558 49.4029 105.249 48.7009Z" fill="#F9E1BE"/>
<path d="M105.373 62.429C104.064 61.727 103.537 60.1429 104.194 58.8889C104.852 57.6349 106.439 57.1909 107.749 57.8929C109.058 58.5949 109.585 60.1789 108.927 61.4329C108.27 62.6869 106.682 63.131 105.373 62.429Z" fill="#F9E1BE"/>
<path d="M118.72 56.4529C117.41 55.7509 116.883 54.1669 117.541 52.9129C118.198 51.6589 119.786 51.2149 121.095 51.9169C122.404 52.6189 122.932 54.2029 122.274 55.4569C121.616 56.7109 120.029 57.1549 118.72 56.4529Z" fill="#F9E1BE"/>
<path d="M67.9459 42.2688C66.6367 41.5668 66.1094 39.9828 66.767 38.7288C67.4246 37.4748 69.0122 37.0308 70.3213 37.7328C71.6305 38.4348 72.1578 40.0188 71.5002 41.2728C70.8426 42.5268 69.255 42.9708 67.9459 42.2688Z" fill="#F9E1BE"/>
<path d="M96.0607 44.8669C94.7515 44.1649 94.2243 42.5809 94.8819 41.3269C95.5394 40.0729 97.127 39.6289 98.4362 40.3309C99.7454 41.0329 100.273 42.6169 99.6151 43.8709C98.9575 45.1249 97.3699 45.5689 96.0607 44.8669Z" fill="#F9E1BE"/>
<path d="M62.324 65.5549C61.0148 64.8529 60.4876 63.2689 61.1452 62.0149C61.8027 60.7609 63.3903 60.3169 64.6995 61.0189C66.0087 61.7209 66.5359 63.3049 65.8784 64.5589C65.2208 65.8129 63.6332 66.2569 62.324 65.5549Z" fill="#F9E1BE"/>
<path d="M77.6848 52.9808H82.7201C85.0897 52.9808 88.644 52.3808 88.644 49.6808C88.644 46.9808 85.6821 44.8808 82.7201 44.2808C79.7582 43.6808 75.9076 43.9808 73.8342 45.7808C71.7609 47.5808 67.6141 49.9808 67.6141 51.4808C67.6141 52.9808 69.6875 53.5808 71.4647 53.5808C72.8864 53.5808 76.2038 53.1808 77.6848 52.9808Z" fill="url(#paint2_radial_521_13)"/>
<defs>
<filter id="filter0_f_521_13" x="0.0706787" y="0" width="156.406" height="102.396" filterUnits="userSpaceOnUse" color-interpolation-filters="sRGB">
<feFlood flood-opacity="0" result="BackgroundImageFix"/>
<feBlend mode="normal" in="SourceGraphic" in2="BackgroundImageFix" result="shape"/>
<feGaussianBlur stdDeviation="16" result="effect1_foregroundBlur_521_13"/>
</filter>
<filter id="filter1_f_521_13" x="67.9624" y="19.623" width="72.5142" height="66.7725" filterUnits="userSpaceOnUse" color-interpolation-filters="sRGB">
<feFlood flood-opacity="0" result="BackgroundImageFix"/>
<feBlend mode="normal" in="SourceGraphic" in2="BackgroundImageFix" result="shape"/>
<feGaussianBlur stdDeviation="8" result="effect1_foregroundBlur_521_13"/>
</filter>
<linearGradient id="paint0_linear_521_13" x1="49.25" y1="50" x2="118.622" y2="63.1716" gradientUnits="userSpaceOnUse">
<stop stop-color="#F3D37B"/>
<stop offset="1" stop-color="#B9B956"/>
</linearGradient>
<linearGradient id="paint1_linear_521_13" x1="91.4945" y1="51.9245" x2="122.742" y2="54.7968" gradientUnits="userSpaceOnUse">
<stop stop-color="#B9B956"/>
<stop offset="1" stop-color="#B9B956"/>
</linearGradient>
<radialGradient id="paint2_radial_521_13" cx="0" cy="0" r="1" gradientUnits="userSpaceOnUse" gradientTransform="translate(78.1291 48.7904) rotate(90) scale(4.79041 10.5149)">
<stop stop-color="#CDAD64"/>
<stop offset="1" stop-color="#B58A54"/>
</radialGradient>
</defs>
</svg>
