<svg width="114" height="107" viewBox="0 0 114 107" fill="none" xmlns="http://www.w3.org/2000/svg">
<path d="M56.186 21.0516C67.5426 20.584 91.4418 25.307 96.186 47.9401C102.116 76.2315 75.6046 86.9353 55.0232 85.8178C37.6976 84.8771 18.6279 75.4131 17.2325 53.6685C15.8372 31.9239 40.9535 20.1164 56.186 21.0516Z" fill="#BF120D"/>
<path d="M56.3493 28.2882C65.2322 27.9243 83.9256 31.5995 87.6364 49.2112C92.2749 71.2258 64.9896 79.595 55.4398 78.6853C45.89 77.7756 26.9722 70.589 25.8808 53.6687C24.7894 36.7484 44.4347 27.5605 56.3493 28.2882Z" fill="#9C171B"/>
<path d="M54.9736 71.5049C60.7875 72.7129 75.8004 72.4567 79.8573 58.2945C84.0433 43.6815 66.9503 35.147 56.3689 35.2639C45.7875 35.3808 34.1596 41.6937 33.5782 51.1632C32.9968 60.6326 35.9038 69.6344 54.9736 71.5049Z" fill="#A70904"/>
<g filter="url(#filter0_f_521_2)">
<path d="M55.5302 66.5013C59.7309 67.3711 70.5781 67.1866 73.5093 56.9896C76.5339 46.4679 64.1837 40.3229 56.5383 40.4071C48.893 40.4913 40.4915 45.0367 40.0715 51.8549C39.6514 58.6731 41.7518 65.1545 55.5302 66.5013Z" fill="#CF1D18"/>
</g>
<defs>
<filter id="filter0_f_521_2" x="0.0233154" y="0.40625" width="113.953" height="106.421" filterUnits="userSpaceOnUse" color-interpolation-filters="sRGB">
<feFlood flood-opacity="0" result="BackgroundImageFix"/>
<feBlend mode="normal" in="SourceGraphic" in2="BackgroundImageFix" result="shape"/>
<feGaussianBlur stdDeviation="20" result="effect1_foregroundBlur_521_2"/>
</filter>
</defs>
</svg>
