<svg width="133" height="141" viewBox="0 0 133 141" fill="none" xmlns="http://www.w3.org/2000/svg">
<path d="M71.8279 108.386C84.2236 107.29 109.571 99.0766 111.798 74.9935C114.58 44.8897 88.0182 33 71.8279 33C55.6376 33 35.3998 44.6368 32.3641 65.3806C29.3284 86.1243 45.5187 106.868 71.8279 108.386Z" fill="#A8CAE6" fill-opacity="0.7"/>
<g filter="url(#filter0_f_521_30)">
<path d="M40.4034 71.665C39.8145 65.1876 42.4223 50.6681 57.5642 44.4094C76.4917 36.5861 74.2204 42.8952 73.2109 44.4094C72.2015 45.9236 64.3781 52.4851 62.3592 60.5609C60.3403 68.6366 62.6116 83.2738 67.9112 86.8069C73.2109 90.34 78.763 89.8353 82.8008 92.6113C86.8387 95.3874 75.4822 101.949 64.6305 100.435C53.7787 98.9205 40.4034 82.7691 40.4034 71.665Z" fill="url(#paint0_linear_521_30)"/>
</g>
<path d="M70.7703 95.0213C72.579 94.6006 76.5747 93.5828 78.0889 92.8761C79.9817 91.9929 84.1457 90.6049 85.7861 90.2263C87.4265 89.8478 90.2025 88.4597 91.0858 86.9455C91.9691 85.4313 94.1142 80.1317 94.3665 75.9676C94.6189 71.8036 94.3665 67.8919 92.7262 66.5039C91.0858 65.1159 83.7672 65.3683 82.1268 66.5039C80.4864 67.6395 79.3508 69.4061 79.2246 70.9203C79.0984 72.4345 79.0984 76.5985 78.5937 77.2295C78.0889 77.8604 75.9438 77.7342 75.3129 78.4913C74.682 79.2484 73.9249 81.772 71.6536 81.5197C69.3823 81.2673 68.3729 79.2484 67.2372 78.4913C66.1016 77.7342 63.9565 78.6175 63.3255 76.7247C62.6946 74.832 62.6946 68.5228 58.7829 67.5134C54.8713 66.5039 52.6 66.5039 51.0858 67.0086C49.5716 67.5134 49.3192 71.425 49.193 73.1916C49.0669 74.9582 49.3192 79.5007 49.824 81.0149C50.3287 82.5291 51.5905 83.6648 51.5905 85.0528C51.5905 86.4408 52.0953 88.7121 53.7356 90.2263C55.376 91.7405 63.0732 94.0118 65.9754 94.5165C68.2971 94.9203 70.1394 95.0213 70.7703 95.0213Z" fill="#112286"/>
<g filter="url(#filter1_f_521_30)">
<path d="M65.5154 92.2804C62.8655 91.6916 57.0611 89.8829 55.0422 87.3593C52.5185 84.2047 53.6542 82.6905 52.3923 79.9145C51.1305 77.1385 51.509 72.9744 53.9065 71.3341C56.304 69.6937 59.7109 71.0817 60.2157 72.8482C60.7204 74.6148 60.0895 81.4287 61.6037 83.0691C63.1179 84.7094 68.039 84.4571 68.039 86.476C68.039 88.4949 68.1652 91.3971 65.5154 92.2804Z" fill="#9DB6EC"/>
</g>
<g filter="url(#filter2_f_521_30)">
<path d="M77.6782 89.3928C79.8654 88.8881 84.694 87.5253 86.511 86.112C88.7823 84.3455 91.4322 81.1909 91.8107 78.9196C92.1893 76.6483 93.3249 71.9796 91.8107 69.7083C90.2965 67.437 87.6467 67.437 85.2492 68.5726C82.8517 69.7083 81.0852 72.7367 81.2113 75.1341C81.3375 77.5316 80.2019 82.0742 78.9401 84.0931C77.6782 86.112 77.6782 87.5001 77.6782 89.3928Z" fill="#9DB6EC"/>
</g>
<defs>
<filter id="filter0_f_521_30" x="0.328125" y="0.570801" width="123.307" height="140.088" filterUnits="userSpaceOnUse" color-interpolation-filters="sRGB">
<feFlood flood-opacity="0" result="BackgroundImageFix"/>
<feBlend mode="normal" in="SourceGraphic" in2="BackgroundImageFix" result="shape"/>
<feGaussianBlur stdDeviation="20" result="effect1_foregroundBlur_521_30"/>
</filter>
<filter id="filter1_f_521_30" x="11.6846" y="30.6025" width="96.3553" height="101.678" filterUnits="userSpaceOnUse" color-interpolation-filters="sRGB">
<feFlood flood-opacity="0" result="BackgroundImageFix"/>
<feBlend mode="normal" in="SourceGraphic" in2="BackgroundImageFix" result="shape"/>
<feGaussianBlur stdDeviation="20" result="effect1_foregroundBlur_521_30"/>
</filter>
<filter id="filter2_f_521_30" x="37.6782" y="27.8267" width="94.8977" height="101.566" filterUnits="userSpaceOnUse" color-interpolation-filters="sRGB">
<feFlood flood-opacity="0" result="BackgroundImageFix"/>
<feBlend mode="normal" in="SourceGraphic" in2="BackgroundImageFix" result="shape"/>
<feGaussianBlur stdDeviation="20" result="effect1_foregroundBlur_521_30"/>
</filter>
<linearGradient id="paint0_linear_521_30" x1="61.9817" y1="40.5708" x2="72.3786" y2="100.634" gradientUnits="userSpaceOnUse">
<stop stop-color="#EBFBFE"/>
<stop offset="1" stop-color="#EBFBFE" stop-opacity="0.49"/>
</linearGradient>
</defs>
</svg>
